<?xml version="1.0" encoding="UTF-8" standalone="no"?>
<!-- Created with Inkscape (http://www.inkscape.org/) -->

<svg
   xmlns:dc="http://purl.org/dc/elements/1.1/"
   xmlns:cc="http://creativecommons.org/ns#"
   xmlns:rdf="http://www.w3.org/1999/02/22-rdf-syntax-ns#"
   xmlns:svg="http://www.w3.org/2000/svg"
   xmlns="http://www.w3.org/2000/svg"
   xmlns:sodipodi="http://sodipodi.sourceforge.net/DTD/sodipodi-0.dtd"
   xmlns:inkscape="http://www.inkscape.org/namespaces/inkscape"
   width="800"
   height="200"
   id="svg2"
   version="1.1"
   inkscape:version="0.48.5 r10040"
   sodipodi:docname="FanzinesKISS-04.svg"
   inkscape:export-filename="/home/duub/Development/duub.org/assets/FanzinesKISS-04.png"
   inkscape:export-xdpi="56.25"
   inkscape:export-ydpi="56.25">
  <defs
     id="defs4" />
  <sodipodi:namedview
     id="base"
     pagecolor="#ffffff"
     bordercolor="#666666"
     borderopacity="1.0"
     inkscape:pageopacity="0.0"
     inkscape:pageshadow="2"
     inkscape:zoom="1"
     inkscape:cx="393.24392"
     inkscape:cy="147.28906"
     inkscape:document-units="px"
     inkscape:current-layer="layer1"
     showgrid="false"
     showguides="true"
     inkscape:guide-bbox="true"
     inkscape:window-width="1366"
     inkscape:window-height="702"
     inkscape:window-x="0"
     inkscape:window-y="27"
     inkscape:window-maximized="1"
     showborder="true"
     inkscape:showpageshadow="true">
    <inkscape:grid
       type="xygrid"
       id="grid3060"
       empspacing="5"
       visible="true"
       enabled="true"
       snapvisiblegridlinesonly="true" />
  </sodipodi:namedview>
  <metadata
     id="metadata7">
    <rdf:RDF>
      <cc:Work
         rdf:about="">
        <dc:format>image/svg+xml</dc:format>
        <dc:type
           rdf:resource="http://purl.org/dc/dcmitype/StillImage" />
        <dc:title></dc:title>
      </cc:Work>
    </rdf:RDF>
  </metadata>
  <g
     inkscape:label="Layer 1"
     inkscape:groupmode="layer"
     id="layer1"
     transform="translate(0,-852.36225)">
    <path
       style="fill:#28e825;fill-opacity:1;stroke:#12ae12;stroke-width:1;stroke-linecap:square;stroke-linejoin:miter;stroke-miterlimit:4;stroke-opacity:1;stroke-dasharray:none"
       d="m 127.19729,890.56864 -3.5625,0.9375 5,9.34375 -24.40624,-2.03125 0,7.09375 24.40624,-2.03125 -5,9.34375 3.5625,0.9375 6.3125,-11.79687 z"
       id="path3138"
       inkscape:connector-curvature="0"
       sodipodi:nodetypes="cccccccccc" />
    <path
       style="fill:#28e825;fill-opacity:1;stroke:#12ae12;stroke-width:1;stroke-linecap:square;stroke-linejoin:miter;stroke-miterlimit:4;stroke-opacity:1;stroke-dasharray:none"
       d="m 172.90809,960.69037 -0.9375,-3.5625 -9.34375,5 2.03125,-24.40623 -7.09375,0 2.03125,24.40623 -9.34375,-5 -0.9375,3.5625 11.79687,6.3125 z"
       id="path3138-8"
       inkscape:connector-curvature="0"
       sodipodi:nodetypes="cccccccccc" />
    <path
       style="fill:#28e825;fill-opacity:1;stroke:#12ae12;stroke-width:1;stroke-linecap:square;stroke-linejoin:miter;stroke-miterlimit:4;stroke-opacity:1;stroke-dasharray:none"
       d="m 209.85355,986.57223 -3.5625,0.9375 5,9.34375 -24.40625,-2.03125 0,7.09377 24.40625,-2.0313 -5,9.3438 3.5625,0.9375 6.3125,-11.7969 z"
       id="path3138-2"
       inkscape:connector-curvature="0"
       sodipodi:nodetypes="cccccccccc" />
    <path
       style="fill:#28e825;fill-opacity:1;stroke:#12ae12;stroke-width:1;stroke-linecap:square;stroke-linejoin:miter;stroke-miterlimit:4;stroke-opacity:1;stroke-dasharray:none"
       d="m 502.27343,890.56864 -3.5625,0.9375 5,9.34375 -24.40625,-2.03125 0,7.09375 24.40625,-2.03125 -5,9.34375 3.5625,0.9375 6.3125,-11.79687 z"
       id="path3138-4"
       inkscape:connector-curvature="0"
       sodipodi:nodetypes="cccccccccc" />
    <path
       style="fill:#28e825;fill-opacity:1;stroke:#12ae12;stroke-width:1;stroke-linecap:square;stroke-linejoin:miter;stroke-miterlimit:4;stroke-opacity:1;stroke-dasharray:none"
       d="m 365.84311,960.69038 -0.93749,-3.5625 -9.34374,5 2.03125,-24.40625 -7.09376,0 2.03125,24.40624 -9.34375,-5 -0.9375,3.5625 11.79687,6.3125 z"
       id="path3138-7"
       inkscape:connector-curvature="0"
       sodipodi:nodetypes="cccccccccc" />
    <path
       style="fill:#28e825;fill-opacity:1;stroke:#12ae12;stroke-width:1;stroke-linecap:square;stroke-linejoin:miter;stroke-miterlimit:4;stroke-opacity:1;stroke-dasharray:none"
       d="m 313.09114,890.56864 -3.5625,0.9375 5,9.34375 -24.40625,-2.03125 0,7.09375 24.40625,-2.03125 -5,9.34375 3.5625,0.9375 6.3125,-11.79687 z"
       id="path3138-0"
       inkscape:connector-curvature="0"
       sodipodi:nodetypes="cccccccccc" />
    <path
       style="fill:#28e825;fill-opacity:1;stroke:#12ae12;stroke-width:1;stroke-linecap:square;stroke-linejoin:miter;stroke-miterlimit:4;stroke-opacity:1;stroke-dasharray:none"
       d="m 247.67325,944.03413 0.9376,3.5625 9.3437,-5 -2.0312,24.40625 7.09371,0 -2.03125,-24.40625 9.34371,5 0.9375,-3.5625 -11.79688,-6.3125 z"
       id="path3138-4-4"
       inkscape:connector-curvature="0"
       sodipodi:nodetypes="cccccccccc" />
    <path
       style="fill:#28e825;fill-opacity:1;stroke:#12ae12;stroke-width:1;stroke-linecap:square;stroke-linejoin:miter;stroke-miterlimit:4;stroke-opacity:1;stroke-dasharray:none"
       d="m 400.45006,1010.166 -3.5625,-0.9376 5,-9.3438 -24.40625,2.0313 0,-7.09376 24.40625,2.03125 -5,-9.34371 3.5625,-0.9375 6.3125,11.79682 z"
       id="path3138-4-4-0"
       inkscape:connector-curvature="0"
       sodipodi:nodetypes="cccccccccc" />
    <path
       style="fill:#28e825;fill-opacity:1;stroke:#12ae12;stroke-width:1;stroke-linecap:square;stroke-linejoin:miter;stroke-miterlimit:4;stroke-opacity:1;stroke-dasharray:none"
       d="m 438.26972,944.03413 0.93759,3.5625 9.3438,-5 -2.0313,24.40625 7.09376,0 -2.03125,-24.40625 9.34371,5 0.9375,-3.5625 -11.79682,-6.3125 z"
       id="path3138-4-4-2"
       inkscape:connector-curvature="0"
       sodipodi:nodetypes="cccccccccc" />
    <path
       style="fill:#28e825;fill-opacity:1;stroke:#12ae12;stroke-width:1;stroke-linecap:square;stroke-linejoin:miter;stroke-miterlimit:4;stroke-opacity:1;stroke-dasharray:none"
       d="m 608.693,1010.166 -3.5625,-0.9376 5,-9.3437 -24.40625,2.0312 0,-7.09372 24.40625,2.03125 -5,-9.34371 3.5625,-0.9375 6.3125,11.79688 z"
       id="path3138-4-4-8"
       inkscape:connector-curvature="0"
       sodipodi:nodetypes="cccccccccc" />
    <path
       style="fill:#28e825;fill-opacity:1;stroke:#12ae12;stroke-width:1;stroke-linecap:square;stroke-linejoin:miter;stroke-miterlimit:4;stroke-opacity:1;stroke-dasharray:none"
       d="m 650.15913,944.03413 0.93759,3.5625 9.3437,-5 -2.0312,24.40625 7.09372,0 -2.03125,-24.40625 9.34371,5 0.9375,-3.5625 -11.79688,-6.3125 z"
       id="path3138-4-4-9"
       inkscape:connector-curvature="0"
       sodipodi:nodetypes="cccccccccc" />
    <path
       style="fill:#28e825;fill-opacity:1;stroke:#12ae12;stroke-width:1;stroke-linecap:square;stroke-linejoin:miter;stroke-miterlimit:4;stroke-opacity:1;stroke-dasharray:none"
       d="m 748.53284,960.69038 -0.93753,-3.5625 -9.34375,5 2.03125,-24.40625 -7.09375,0 2.03125,24.40625 -9.34371,-5 -0.9375,3.5625 11.79683,6.3125 z"
       id="path3138-4-4-00"
       inkscape:connector-curvature="0"
       sodipodi:nodetypes="cccccccccc" />
    <path
       style="fill:#28e825;fill-opacity:1;stroke:#12ae12;stroke-width:1;stroke-linecap:square;stroke-linejoin:miter;stroke-miterlimit:4;stroke-opacity:1;stroke-dasharray:none"
       d="m 704.16282,914.16239 -3.5625,-0.93753 5,-9.34375 -24.40625,2.03125 0,-7.09375 24.40625,2.03125 -5,-9.34371 3.5625,-0.9375 6.3125,11.79683 z"
       id="path3138-4-4-03"
       inkscape:connector-curvature="0"
       sodipodi:nodetypes="cccccccccc" />
    <path
       style="fill:#28e825;fill-opacity:1;stroke:#12ae12;stroke-width:1;stroke-linecap:square;stroke-linejoin:miter;stroke-miterlimit:4;stroke-opacity:1;stroke-dasharray:none"
       d="m 534.15378,960.69038 0.93753,-3.5625 9.34375,5 -2.03125,-24.40625 7.09375,0 -2.03125,24.40625 9.34371,-5 0.9375,3.5625 -11.79683,6.3125 z"
       id="path3138-4-4-03-5"
       inkscape:connector-curvature="0"
       sodipodi:nodetypes="cccccccccc" />
    <text
       xml:space="preserve"
       style="font-size:40px;font-style:normal;font-variant:normal;font-weight:normal;font-stretch:normal;line-height:125%;letter-spacing:0px;word-spacing:0px;fill:#000000;fill-opacity:1;stroke:none;font-family:GNUTypewriter;-inkscape-font-specification:GNUTypewriter"
       x="29.218437"
       y="914.04224"
       id="text4118"
       sodipodi:linespacing="125%"><tspan
         sodipodi:role="line"
         id="tspan4120"
         x="29.218437"
         y="914.04224"
         style="font-style:normal;font-variant:normal;font-weight:normal;font-stretch:normal;font-family:GNUTypewriter;-inkscape-font-specification:GNUTypewriter"> 1   2   3   4   5   6   7  8</tspan><tspan
         sodipodi:role="line"
         x="29.218437"
         y="964.04224"
         id="tspan4122"
         style="font-style:normal;font-variant:normal;font-weight:normal;font-stretch:normal;font-family:GNUTypewriter;-inkscape-font-specification:GNUTypewriter" /><tspan
         sodipodi:role="line"
         x="29.218437"
         y="1014.0422"
         id="tspan4124"
         style="font-style:normal;font-variant:normal;font-weight:normal;font-stretch:normal;font-family:GNUTypewriter;-inkscape-font-specification:GNUTypewriter">16  15  14  13  12  11  10  9</tspan></text>
    <path
       style="fill:#28e825;fill-opacity:1;stroke:#12ae12;stroke-width:1;stroke-linecap:square;stroke-linejoin:miter;stroke-miterlimit:4;stroke-opacity:1;stroke-dasharray:none"
       d="m 79.796871,944.03413 -0.9375,3.5625 -9.34375,-5 2.03125,24.40624 -7.09378,0 2.0313,-24.40624 -9.34366,5 -0.9376,-3.5625 11.79686,-6.3125 z"
       id="path3138-5-4"
       inkscape:connector-curvature="0"
       sodipodi:nodetypes="cccccccccc" />
  </g>
</svg>
